<mxfile host="app.diagrams.net" agent="Mozilla/5.0 (Windows NT 10.0; Win64; x64) AppleWebKit/537.36 (KHTML, like Gecko) Chrome/133.0.0.0 Safari/537.36" version="26.0.16">
  <diagram name="Page-1" id="wiE2_eOPxw3wgQlOg-r9">
    <mxGraphModel dx="1050" dy="522" grid="1" gridSize="10" guides="1" tooltips="1" connect="1" arrows="1" fold="1" page="1" pageScale="1" pageWidth="850" pageHeight="1100" math="0" shadow="0">
      <root>
        <mxCell id="0" />
        <mxCell id="1" parent="0" />
        <mxCell id="Z1w8uMgEjg_zRqp23Vgu-2" value="" style="rounded=0;whiteSpace=wrap;html=1;" parent="1" vertex="1">
          <mxGeometry x="215" y="80" width="570" height="820" as="geometry" />
        </mxCell>
        <mxCell id="Z1w8uMgEjg_zRqp23Vgu-3" value="Dev-social" style="text;html=1;align=center;verticalAlign=middle;whiteSpace=wrap;rounded=0;" parent="1" vertex="1">
          <mxGeometry x="475" y="80" width="60" height="30" as="geometry" />
        </mxCell>
        <mxCell id="Z1w8uMgEjg_zRqp23Vgu-5" value="user" style="shape=umlActor;verticalLabelPosition=bottom;verticalAlign=top;html=1;outlineConnect=0;" parent="1" vertex="1">
          <mxGeometry x="65" y="280" width="30" height="60" as="geometry" />
        </mxCell>
        <mxCell id="Z1w8uMgEjg_zRqp23Vgu-7" value="Creer&amp;nbsp;&lt;br&gt;compte" style="ellipse;whiteSpace=wrap;html=1;" parent="1" vertex="1">
          <mxGeometry x="265" y="100" width="120" height="40" as="geometry" />
        </mxCell>
        <mxCell id="Z1w8uMgEjg_zRqp23Vgu-9" value="" style="endArrow=none;html=1;rounded=0;exitX=0.5;exitY=0.5;exitDx=0;exitDy=0;exitPerimeter=0;entryX=0;entryY=0.5;entryDx=0;entryDy=0;" parent="1" source="Z1w8uMgEjg_zRqp23Vgu-5" target="Z1w8uMgEjg_zRqp23Vgu-7" edge="1">
          <mxGeometry width="50" height="50" relative="1" as="geometry">
            <mxPoint x="445" y="380" as="sourcePoint" />
            <mxPoint x="495" y="330" as="targetPoint" />
          </mxGeometry>
        </mxCell>
        <mxCell id="Z1w8uMgEjg_zRqp23Vgu-10" value="Update&lt;div&gt;profile&lt;/div&gt;" style="ellipse;whiteSpace=wrap;html=1;" parent="1" vertex="1">
          <mxGeometry x="265" y="150" width="120" height="40" as="geometry" />
        </mxCell>
        <mxCell id="Z1w8uMgEjg_zRqp23Vgu-11" value="" style="endArrow=none;html=1;rounded=0;entryX=0;entryY=0.5;entryDx=0;entryDy=0;" parent="1" target="Z1w8uMgEjg_zRqp23Vgu-10" edge="1">
          <mxGeometry width="50" height="50" relative="1" as="geometry">
            <mxPoint x="85" y="310" as="sourcePoint" />
            <mxPoint x="495" y="330" as="targetPoint" />
          </mxGeometry>
        </mxCell>
        <mxCell id="Z1w8uMgEjg_zRqp23Vgu-12" value="Gerer&lt;div&gt;post&lt;/div&gt;" style="ellipse;whiteSpace=wrap;html=1;" parent="1" vertex="1">
          <mxGeometry x="265" y="230" width="120" height="40" as="geometry" />
        </mxCell>
        <mxCell id="Z1w8uMgEjg_zRqp23Vgu-15" value="" style="endArrow=none;html=1;rounded=0;entryX=0;entryY=0.5;entryDx=0;entryDy=0;" parent="1" target="Z1w8uMgEjg_zRqp23Vgu-12" edge="1">
          <mxGeometry width="50" height="50" relative="1" as="geometry">
            <mxPoint x="85" y="310" as="sourcePoint" />
            <mxPoint x="495" y="330" as="targetPoint" />
          </mxGeometry>
        </mxCell>
        <mxCell id="Z1w8uMgEjg_zRqp23Vgu-16" value="Decouvrir&lt;div&gt;posts&lt;/div&gt;" style="ellipse;whiteSpace=wrap;html=1;" parent="1" vertex="1">
          <mxGeometry x="265" y="320" width="120" height="40" as="geometry" />
        </mxCell>
        <mxCell id="Z1w8uMgEjg_zRqp23Vgu-17" value="" style="endArrow=none;html=1;rounded=0;entryX=0;entryY=0.5;entryDx=0;entryDy=0;exitX=0.5;exitY=0.5;exitDx=0;exitDy=0;exitPerimeter=0;" parent="1" source="Z1w8uMgEjg_zRqp23Vgu-5" target="Z1w8uMgEjg_zRqp23Vgu-16" edge="1">
          <mxGeometry width="50" height="50" relative="1" as="geometry">
            <mxPoint x="445" y="380" as="sourcePoint" />
            <mxPoint x="495" y="330" as="targetPoint" />
          </mxGeometry>
        </mxCell>
        <mxCell id="Z1w8uMgEjg_zRqp23Vgu-18" value="Aimer&lt;br&gt;post" style="ellipse;whiteSpace=wrap;html=1;" parent="1" vertex="1">
          <mxGeometry x="505" y="430" width="120" height="40" as="geometry" />
        </mxCell>
        <mxCell id="Z1w8uMgEjg_zRqp23Vgu-19" value="Commenter&lt;div&gt;post&lt;/div&gt;" style="ellipse;whiteSpace=wrap;html=1;" parent="1" vertex="1">
          <mxGeometry x="510" y="480" width="120" height="40" as="geometry" />
        </mxCell>
        <mxCell id="Z1w8uMgEjg_zRqp23Vgu-22" value="Partager&lt;div&gt;post&lt;/div&gt;" style="ellipse;whiteSpace=wrap;html=1;" parent="1" vertex="1">
          <mxGeometry x="520" y="530" width="120" height="40" as="geometry" />
        </mxCell>
        <mxCell id="Z1w8uMgEjg_zRqp23Vgu-24" value="Gerer&amp;nbsp;&lt;div&gt;connexions&lt;/div&gt;" style="ellipse;whiteSpace=wrap;html=1;" parent="1" vertex="1">
          <mxGeometry x="237" y="617" width="120" height="50" as="geometry" />
        </mxCell>
        <mxCell id="Z1w8uMgEjg_zRqp23Vgu-25" value="" style="endArrow=none;html=1;rounded=0;exitX=0;exitY=0.5;exitDx=0;exitDy=0;entryX=0.5;entryY=0.5;entryDx=0;entryDy=0;entryPerimeter=0;" parent="1" source="Z1w8uMgEjg_zRqp23Vgu-24" target="Z1w8uMgEjg_zRqp23Vgu-5" edge="1">
          <mxGeometry width="50" height="50" relative="1" as="geometry">
            <mxPoint x="545" y="580" as="sourcePoint" />
            <mxPoint x="95" y="310" as="targetPoint" />
          </mxGeometry>
        </mxCell>
        <mxCell id="Z1w8uMgEjg_zRqp23Vgu-28" value="Rechercher&lt;div&gt;posts&lt;/div&gt;" style="ellipse;whiteSpace=wrap;html=1;" parent="1" vertex="1">
          <mxGeometry x="463" y="360" width="120" height="40" as="geometry" />
        </mxCell>
        <mxCell id="Z1w8uMgEjg_zRqp23Vgu-29" value="" style="endArrow=classic;html=1;rounded=0;exitX=0;exitY=0.5;exitDx=0;exitDy=0;entryX=1;entryY=0.5;entryDx=0;entryDy=0;dashed=1;" parent="1" source="Z1w8uMgEjg_zRqp23Vgu-28" target="Z1w8uMgEjg_zRqp23Vgu-16" edge="1">
          <mxGeometry width="50" height="50" relative="1" as="geometry">
            <mxPoint x="495" y="430" as="sourcePoint" />
            <mxPoint x="545" y="380" as="targetPoint" />
          </mxGeometry>
        </mxCell>
        <mxCell id="Z1w8uMgEjg_zRqp23Vgu-30" value="extends" style="text;html=1;align=center;verticalAlign=middle;whiteSpace=wrap;rounded=0;" parent="1" vertex="1">
          <mxGeometry x="415" y="340" width="60" height="30" as="geometry" />
        </mxCell>
        <mxCell id="Z1w8uMgEjg_zRqp23Vgu-31" value="Filtrer&lt;div&gt;posts&lt;/div&gt;" style="ellipse;whiteSpace=wrap;html=1;" parent="1" vertex="1">
          <mxGeometry x="455" y="290" width="120" height="40" as="geometry" />
        </mxCell>
        <mxCell id="Z1w8uMgEjg_zRqp23Vgu-32" value="" style="endArrow=classic;html=1;rounded=0;exitX=0;exitY=0.5;exitDx=0;exitDy=0;entryX=1;entryY=0.5;entryDx=0;entryDy=0;dashed=1;" parent="1" source="Z1w8uMgEjg_zRqp23Vgu-31" target="Z1w8uMgEjg_zRqp23Vgu-16" edge="1">
          <mxGeometry width="50" height="50" relative="1" as="geometry">
            <mxPoint x="450" y="390" as="sourcePoint" />
            <mxPoint x="395" y="350" as="targetPoint" />
          </mxGeometry>
        </mxCell>
        <mxCell id="Z1w8uMgEjg_zRqp23Vgu-33" value="extends" style="text;html=1;align=center;verticalAlign=middle;whiteSpace=wrap;rounded=0;" parent="1" vertex="1">
          <mxGeometry x="365" y="280" width="60" height="30" as="geometry" />
        </mxCell>
        <mxCell id="Z1w8uMgEjg_zRqp23Vgu-34" value="Ajouter&lt;div&gt;hashtags&lt;/div&gt;" style="ellipse;whiteSpace=wrap;html=1;" parent="1" vertex="1">
          <mxGeometry x="585" y="120" width="120" height="40" as="geometry" />
        </mxCell>
        <mxCell id="Z1w8uMgEjg_zRqp23Vgu-36" value="extends" style="text;html=1;align=center;verticalAlign=middle;whiteSpace=wrap;rounded=0;" parent="1" vertex="1">
          <mxGeometry x="615" y="30" width="60" height="30" as="geometry" />
        </mxCell>
        <mxCell id="Z1w8uMgEjg_zRqp23Vgu-37" value="Authentifier" style="ellipse;whiteSpace=wrap;html=1;" parent="1" vertex="1">
          <mxGeometry x="615" y="300" width="120" height="40" as="geometry" />
        </mxCell>
        <mxCell id="f_6lb_n7UgVaYgWWF9dF-1" value="add&lt;div&gt;post&lt;/div&gt;" style="ellipse;whiteSpace=wrap;html=1;" vertex="1" parent="1">
          <mxGeometry x="450" y="130" width="75" height="40" as="geometry" />
        </mxCell>
        <mxCell id="f_6lb_n7UgVaYgWWF9dF-2" value="edit&lt;div&gt;post&lt;/div&gt;" style="ellipse;whiteSpace=wrap;html=1;" vertex="1" parent="1">
          <mxGeometry x="450" y="180" width="75" height="40" as="geometry" />
        </mxCell>
        <mxCell id="f_6lb_n7UgVaYgWWF9dF-3" value="delete&lt;div&gt;post&lt;/div&gt;" style="ellipse;whiteSpace=wrap;html=1;" vertex="1" parent="1">
          <mxGeometry x="450" y="230" width="75" height="40" as="geometry" />
        </mxCell>
        <mxCell id="f_6lb_n7UgVaYgWWF9dF-4" value="" style="endArrow=block;endSize=16;endFill=0;html=1;rounded=0;exitX=0;exitY=0.5;exitDx=0;exitDy=0;entryX=0.962;entryY=0.26;entryDx=0;entryDy=0;entryPerimeter=0;" edge="1" parent="1" source="f_6lb_n7UgVaYgWWF9dF-1" target="Z1w8uMgEjg_zRqp23Vgu-12">
          <mxGeometry width="160" relative="1" as="geometry">
            <mxPoint x="340" y="270" as="sourcePoint" />
            <mxPoint x="500" y="270" as="targetPoint" />
          </mxGeometry>
        </mxCell>
        <mxCell id="f_6lb_n7UgVaYgWWF9dF-5" value="" style="endArrow=block;endSize=16;endFill=0;html=1;rounded=0;exitX=0;exitY=0.5;exitDx=0;exitDy=0;entryX=0.922;entryY=0.3;entryDx=0;entryDy=0;entryPerimeter=0;" edge="1" parent="1" source="f_6lb_n7UgVaYgWWF9dF-2" target="Z1w8uMgEjg_zRqp23Vgu-12">
          <mxGeometry width="160" relative="1" as="geometry">
            <mxPoint x="460" y="160" as="sourcePoint" />
            <mxPoint x="377" y="166" as="targetPoint" />
          </mxGeometry>
        </mxCell>
        <mxCell id="f_6lb_n7UgVaYgWWF9dF-6" value="" style="endArrow=block;endSize=16;endFill=0;html=1;rounded=0;exitX=0;exitY=0.5;exitDx=0;exitDy=0;" edge="1" parent="1" source="f_6lb_n7UgVaYgWWF9dF-3">
          <mxGeometry width="160" relative="1" as="geometry">
            <mxPoint x="460" y="210" as="sourcePoint" />
            <mxPoint x="380" y="240" as="targetPoint" />
          </mxGeometry>
        </mxCell>
        <mxCell id="f_6lb_n7UgVaYgWWF9dF-7" value="" style="endArrow=classic;html=1;rounded=0;exitX=0;exitY=0.5;exitDx=0;exitDy=0;entryX=1;entryY=0.5;entryDx=0;entryDy=0;dashed=1;" edge="1" parent="1" source="Z1w8uMgEjg_zRqp23Vgu-34" target="f_6lb_n7UgVaYgWWF9dF-1">
          <mxGeometry width="50" height="50" relative="1" as="geometry">
            <mxPoint x="465" y="320" as="sourcePoint" />
            <mxPoint x="395" y="350" as="targetPoint" />
          </mxGeometry>
        </mxCell>
        <mxCell id="f_6lb_n7UgVaYgWWF9dF-9" value="Interaction&lt;div&gt;avec post&lt;/div&gt;" style="ellipse;whiteSpace=wrap;html=1;" vertex="1" parent="1">
          <mxGeometry x="265" y="470" width="120" height="40" as="geometry" />
        </mxCell>
        <mxCell id="f_6lb_n7UgVaYgWWF9dF-10" value="" style="endArrow=none;html=1;rounded=0;entryX=0;entryY=0.5;entryDx=0;entryDy=0;" edge="1" parent="1" target="f_6lb_n7UgVaYgWWF9dF-9">
          <mxGeometry width="50" height="50" relative="1" as="geometry">
            <mxPoint x="80" y="310" as="sourcePoint" />
            <mxPoint x="410" y="480" as="targetPoint" />
          </mxGeometry>
        </mxCell>
        <mxCell id="f_6lb_n7UgVaYgWWF9dF-11" value="" style="endArrow=block;endSize=16;endFill=0;html=1;rounded=0;entryX=1;entryY=0.5;entryDx=0;entryDy=0;exitX=0;exitY=0.5;exitDx=0;exitDy=0;" edge="1" parent="1" source="Z1w8uMgEjg_zRqp23Vgu-18" target="f_6lb_n7UgVaYgWWF9dF-9">
          <mxGeometry width="160" relative="1" as="geometry">
            <mxPoint x="435" y="360" as="sourcePoint" />
            <mxPoint x="340" y="446" as="targetPoint" />
            <Array as="points" />
          </mxGeometry>
        </mxCell>
        <mxCell id="f_6lb_n7UgVaYgWWF9dF-12" value="" style="endArrow=block;endSize=16;endFill=0;html=1;rounded=0;exitX=0;exitY=0.5;exitDx=0;exitDy=0;entryX=1;entryY=0.5;entryDx=0;entryDy=0;" edge="1" parent="1" source="Z1w8uMgEjg_zRqp23Vgu-19" target="f_6lb_n7UgVaYgWWF9dF-9">
          <mxGeometry width="160" relative="1" as="geometry">
            <mxPoint x="460" y="210" as="sourcePoint" />
            <mxPoint x="386" y="252" as="targetPoint" />
          </mxGeometry>
        </mxCell>
        <mxCell id="f_6lb_n7UgVaYgWWF9dF-13" value="" style="endArrow=block;endSize=16;endFill=0;html=1;rounded=0;exitX=0;exitY=0.5;exitDx=0;exitDy=0;entryX=1;entryY=0.5;entryDx=0;entryDy=0;" edge="1" parent="1" source="Z1w8uMgEjg_zRqp23Vgu-22" target="f_6lb_n7UgVaYgWWF9dF-9">
          <mxGeometry width="160" relative="1" as="geometry">
            <mxPoint x="460" y="260" as="sourcePoint" />
            <mxPoint x="390" y="490" as="targetPoint" />
          </mxGeometry>
        </mxCell>
        <mxCell id="f_6lb_n7UgVaYgWWF9dF-14" value="Send&lt;div&gt;connection&lt;/div&gt;&lt;div&gt;request&lt;/div&gt;" style="ellipse;whiteSpace=wrap;html=1;" vertex="1" parent="1">
          <mxGeometry x="415" y="570" width="120" height="50" as="geometry" />
        </mxCell>
        <mxCell id="f_6lb_n7UgVaYgWWF9dF-16" value="Accept&lt;br&gt;&lt;div&gt;connection&lt;/div&gt;&lt;div&gt;request&lt;/div&gt;" style="ellipse;whiteSpace=wrap;html=1;" vertex="1" parent="1">
          <mxGeometry x="420" y="640" width="120" height="50" as="geometry" />
        </mxCell>
        <mxCell id="f_6lb_n7UgVaYgWWF9dF-17" value="&lt;div&gt;Reject&lt;/div&gt;&lt;div&gt;connection&lt;/div&gt;&lt;div&gt;request&lt;/div&gt;" style="ellipse;whiteSpace=wrap;html=1;" vertex="1" parent="1">
          <mxGeometry x="430" y="710" width="120" height="50" as="geometry" />
        </mxCell>
        <mxCell id="f_6lb_n7UgVaYgWWF9dF-18" value="" style="endArrow=block;endSize=16;endFill=0;html=1;rounded=0;entryX=0.962;entryY=0.372;entryDx=0;entryDy=0;exitX=0;exitY=0.5;exitDx=0;exitDy=0;entryPerimeter=0;" edge="1" parent="1" source="f_6lb_n7UgVaYgWWF9dF-14" target="Z1w8uMgEjg_zRqp23Vgu-24">
          <mxGeometry width="160" relative="1" as="geometry">
            <mxPoint x="515" y="460" as="sourcePoint" />
            <mxPoint x="395" y="500" as="targetPoint" />
            <Array as="points" />
          </mxGeometry>
        </mxCell>
        <mxCell id="f_6lb_n7UgVaYgWWF9dF-19" value="" style="endArrow=block;endSize=16;endFill=0;html=1;rounded=0;exitX=0;exitY=0.5;exitDx=0;exitDy=0;" edge="1" parent="1" source="f_6lb_n7UgVaYgWWF9dF-16">
          <mxGeometry width="160" relative="1" as="geometry">
            <mxPoint x="425" y="605" as="sourcePoint" />
            <mxPoint x="350" y="630" as="targetPoint" />
            <Array as="points" />
          </mxGeometry>
        </mxCell>
        <mxCell id="f_6lb_n7UgVaYgWWF9dF-20" value="" style="endArrow=block;endSize=16;endFill=0;html=1;rounded=0;exitX=0;exitY=0.5;exitDx=0;exitDy=0;entryX=1;entryY=0.5;entryDx=0;entryDy=0;" edge="1" parent="1" source="f_6lb_n7UgVaYgWWF9dF-17" target="Z1w8uMgEjg_zRqp23Vgu-24">
          <mxGeometry width="160" relative="1" as="geometry">
            <mxPoint x="430" y="675" as="sourcePoint" />
            <mxPoint x="360" y="630" as="targetPoint" />
            <Array as="points" />
          </mxGeometry>
        </mxCell>
      </root>
    </mxGraphModel>
  </diagram>
</mxfile>
